<svg xmlns="http://www.w3.org/2000/svg" xmlns:xlink="http://www.w3.org/1999/xlink" preserveAspectRatio="xMidYMid meet" version="1.0" viewBox="-1.1 -0.3 208.8 479.1" zoomAndPan="magnify" style="fill: rgb(0, 0, 0);" original_string_length="13014"><g id="__id8_sne7z580k"><path d="M149.48,422.94c2.83,7.02,9.79,26.51,6.36,40.91c-2.41,10.11-35.23,14.98-41.87,0 c-4.16-9.39,3.14-30.39,6.63-39.37c1.18-3.02,2.08-6.14,2.69-9.33l1.4-7.3h21.28l1.74,9.07 C148.11,418.98,148.7,420.99,149.48,422.94z M86.26,394.69c0.03,11.52-29.48,62.18,0.82,57.59c19.99-3.03,25.75-19.25,27.36-29.94 c0.79-5.28,2.23-10.46,4.51-15.29c3.25-6.85,1.83-13.24,1.83-13.24c-3.06-8.6-14.11-12.77-14.11-12.77 C99.12,376.68,86.23,383.17,86.26,394.69z" style="fill: rgb(255, 255, 255);"/></g><g id="__id9_sne7z580k"><path d="M134.09,459.25c-3.44,0-7.27-1.11-11.17-4.32c-1.18-0.97-2.87-1.05-4.12-0.2l-5.74,3.92c-0.23,0.16-0.54,0.1-0.7-0.13 c-0.16-0.23-0.1-0.54,0.13-0.7l5.74-3.92c1.62-1.1,3.8-1,5.32,0.25c9.16,7.53,17.75,3.11,22.05-0.2c1.49-1.14,3.55-1.22,5.12-0.19 l6.21,4.05c0.23,0.15,0.3,0.46,0.15,0.69s-0.46,0.3-0.69,0.15l-6.21-4.05c-1.22-0.8-2.81-0.74-3.96,0.15 C143.98,456.48,139.52,459.25,134.09,459.25z M127.48,427.43c7.91-3.36,14.44-0.05,14.51-0.02c0.25,0.13,0.55,0.03,0.67-0.21 c0.13-0.25,0.03-0.55-0.21-0.67c-0.28-0.15-7.01-3.57-15.36-0.02c-0.25,0.11-0.37,0.4-0.26,0.66c0.08,0.19,0.27,0.3,0.46,0.3 C127.35,427.47,127.42,427.46,127.48,427.43z M127.45,432.98c7.91-3.36,14.44-0.05,14.51-0.02c0.25,0.13,0.55,0.03,0.67-0.21 c0.13-0.25,0.03-0.55-0.21-0.67c-0.28-0.15-7.01-3.57-15.36-0.02c-0.25,0.11-0.37,0.4-0.26,0.66c0.08,0.19,0.27,0.3,0.46,0.3 C127.32,433.02,127.39,433.01,127.45,432.98z M126.94,438.53c7.91-3.36,14.44-0.05,14.51-0.02c0.25,0.13,0.55,0.03,0.67-0.21 c0.13-0.25,0.03-0.55-0.21-0.67c-0.28-0.15-7-3.57-15.36-0.02c-0.25,0.11-0.37,0.4-0.26,0.66c0.08,0.19,0.27,0.3,0.46,0.3 C126.81,438.57,126.88,438.56,126.94,438.53z M97.08,431.61c1.31-0.92,3.05-0.88,4.33,0.1l7.78,5.98c0.22,0.17,0.53,0.13,0.7-0.09 c0.17-0.22,0.13-0.53-0.09-0.7l-7.78-5.98c-1.63-1.25-3.85-1.3-5.52-0.13c-4.65,3.27-16.1,10.17-22.01,3.63 c-0.18-0.2-0.5-0.22-0.71-0.04c-0.2,0.19-0.22,0.5-0.04,0.71c1.99,2.2,4.52,3.04,7.2,3.04C86.95,438.13,93.72,433.97,97.08,431.61z M83.21,407.35c4.42-2.52,10.63,0,10.7,0.03c0.26,0.1,0.55-0.02,0.65-0.27c0.11-0.25-0.01-0.55-0.27-0.65 c-0.27-0.11-6.73-2.74-11.58,0.03c-0.24,0.14-0.32,0.44-0.19,0.68c0.09,0.16,0.26,0.25,0.43,0.25 C83.05,407.41,83.13,407.39,83.21,407.35z M80.92,412.52c4.42-2.53,10.63,0,10.7,0.03c0.25,0.1,0.55-0.01,0.65-0.27 c0.11-0.25-0.01-0.55-0.27-0.65c-0.27-0.11-6.73-2.75-11.58,0.03c-0.24,0.14-0.32,0.44-0.19,0.68c0.09,0.16,0.26,0.25,0.43,0.25 C80.76,412.58,80.84,412.56,80.92,412.52z M79,417.75c4.42-2.53,10.64,0,10.7,0.03c0.26,0.1,0.55-0.02,0.65-0.27 c0.11-0.25-0.01-0.55-0.27-0.65c-0.27-0.11-6.73-2.74-11.58,0.03c-0.24,0.14-0.32,0.44-0.19,0.68c0.09,0.16,0.26,0.25,0.43,0.25 C78.84,417.81,78.93,417.79,79,417.75z M116.8,406.17c0.25-0.13,0.34-0.43,0.21-0.67l-2.56-4.97c-0.67-1.29-0.81-2.76-0.41-4.14 c1.6-5.44,0.4-11.11,0.35-11.34c-0.06-0.27-0.33-0.44-0.59-0.38c-0.27,0.06-0.44,0.32-0.38,0.59c0.01,0.06,1.19,5.66-0.33,10.85 c-0.48,1.62-0.31,3.36,0.48,4.88l2.56,4.97c0.09,0.17,0.26,0.27,0.44,0.27C116.65,406.22,116.73,406.21,116.8,406.17z" style="fill: inherit;"/></g><g id="__id10_sne7z580k"><path d="M122.82,59.95l0.55,18.34c0,0-14.33,7.62-27.76-1.42l2.49-15.66c-5.95-4.39-10.51-11.76-11.35-20.48 c-1.43-14.81,7.79-27.85,19.27-28.91c11.47-1.06,22.55,10.15,23.98,24.95c0.88,9.06-1.84,17.37-6.71,22.7 C123.13,59.65,122.97,59.8,122.82,59.95z" style="fill: rgb(255, 191, 187);"/></g><g id="__id11_sne7z580k"><path d="M122.28,60.33c-0.24,5.19-5.3,9.33-11.5,9.33c-5.31,0-9.77-3.03-11.11-7.16c3.5,2.38,7.43,3.64,11.34,3.4 C115.31,65.64,119.19,63.6,122.28,60.33z M116.73,31.85c-1.67,0.26-2.82,1.82-2.56,3.49c0.26,1.67,1.82,2.82,3.49,2.56 c1.67-0.26,2.82-1.82,2.56-3.49C119.96,32.74,118.4,31.59,116.73,31.85z M98.78,34.6c-1.67,0.26-2.82,1.82-2.56,3.49 c0.26,1.67,1.82,2.82,3.49,2.56c1.67-0.26,2.82-1.82,2.56-3.49C102.02,35.49,100.45,34.34,98.78,34.6z M109.24,46.27 c0.22-0.17,0.25-0.49,0.08-0.7c-0.91-1.15-1.28-2.21-1.12-3.14c0.2-1.14,1.15-1.75,1.16-1.75l0,0c0.23-0.14,0.31-0.45,0.16-0.69 c-0.14-0.24-0.45-0.31-0.69-0.17c-0.05,0.03-1.34,0.83-1.62,2.42c-0.22,1.23,0.22,2.56,1.32,3.95c0.1,0.13,0.25,0.19,0.39,0.19 C109.03,46.38,109.14,46.34,109.24,46.27z" style="fill: inherit;"/></g><g id="__id12_sne7z580k"><path d="M121.01,48.22c-0.73,2.92-2.96,8.64-9.34,9.59c-6.39,0.95-10.19-3.88-11.73-6.46 c-0.44-0.73,0-1.66,0.84-1.79l18.91-2.81C120.52,46.63,121.21,47.4,121.01,48.22z" style="fill: rgb(255, 255, 255);"/></g><g id="__id13_sne7z580k"><path d="M129.43,35.34c-1.46,0.81-4.8-5.99-6.34-9.36c-3.82-2.37-7.09-6.78-9.2-10.13 c-0.76,3.11-2.86,8.42-8.66,11.41c-0.15,0.08-0.3,0.11-0.46,0.11c-0.36,0-0.71-0.2-0.89-0.54c-0.25-0.49-0.06-1.09,0.43-1.35 c3.94-2.03,5.94-5.37,6.96-8.04c-3.3,3.92-10.27,10.32-21.84,12.31c0,0,0.65,10.2-1.86,10.46c-2.52,0.26-10.47-8.31-5.88-18.06 c1.9-4.04,4.11-7.44,6.89-10.26c-2.33,1.46-4.56,3.23-6.44,5.38c-0.2,0.23-0.48,0.34-0.75,0.34c-0.23,0-0.47-0.08-0.66-0.25 c-0.42-0.36-0.46-0.99-0.1-1.41c5.45-6.25,13.43-9.45,18.9-11c1.6-0.6,3.31-1.14,5.18-1.59c4.39-1.07,7.74,1.19,9.76,3.37 c-0.13-0.66-0.44-1.48-1.14-2.24c-1.77-1.92-5.35-2.76-10.35-2.43c-0.55,0.05-1.03-0.38-1.06-0.93c-0.04-0.55,0.38-1.03,0.93-1.06 c5.74-0.38,9.78,0.66,11.99,3.11c1.16,1.29,1.56,2.69,1.68,3.72c7.53-3.08,15.11,8.66,15.54,15.74v0 C132.1,23.53,130.8,34.58,129.43,35.34z" style="fill: rgb(255, 99, 52);"/></g><g id="__id14_sne7z580k"><path d="M135.65,39.02c-0.33,4.64-2.99,8.23-5.93,8.02c-2.94-0.21-5.06-4.14-4.73-8.78 c0.33-4.64,2.99-8.23,5.93-8.02C133.87,30.45,135.98,34.38,135.65,39.02z M83.16,47.77c1.93,4.23,5.64,6.69,8.28,5.48 c2.64-1.21,3.21-5.61,1.28-9.84c-1.93-4.23-5.64-6.69-8.28-5.48C81.8,39.13,81.23,43.54,83.16,47.77z" style="fill: rgb(255, 191, 187);"/></g><g id="__id15_sne7z580k"><path d="M166.23,95.59c-8.17-7.4-36.77-13.96-36.77-13.96l-2.2-8.99c-0.38-1.56-1.89-2.56-3.48-2.3 c-5.09,0.84-16.44,2.03-27.82-1.4c-1.69-0.51-3.49,0.35-4.09,2.01l-3.43,9.41c0,0-24.85,2.55-36.85,10.72s-52.65,51.32-51.57,60 c1.07,8.68,38.04,47.74,51.32,39.06c13.27-8.68,11.48-20.42-6.39-38.55l13.02-12l0.02,0.41l0.03,0.57c0.1,2.23,0.4,8.06,0.92,15.66 l0.05,0.71c1.31,18.97,3.96,48.37,8.4,61.01c-1.43,1.59-2.69,3.22-3.75,4.9c-0.2,0.32-0.37,0.67-0.5,1.03 C60.37,231.56,23.57,322.31,30.4,335c6.05,11.23,42.22,48.77,53.22,60.07c2.1,2.16,5.29,2.85,8.08,1.72 c5.08-2.07,12.62-6.66,15.09-16.16c0.45-1.72,0.26-3.54-0.55-5.12c-4.6-8.9-22.05-42.37-29.63-52.96l25.64-53 c0,0,13.85,96.83,20.59,136.83c0.38,2.26,2.2,4.02,4.47,4.28c3.94,0.45,10.52,0.5,17.98-2.36c1.87-0.72,3.16-2.44,3.31-4.43 c1.49-19.31,9.25-123.57,6.23-171.21c0.32-0.13,0.55-0.26,0.68-0.39c3.83-3.83-2.3-14.3-2.3-14.3s0.08-8.73-0.8-20.49 c0.28,0.49,0.6,0.97,0.98,1.43c0,0.01,0,0.01,0,0.01c0.4,0.5,0.85,0.98,1.35,1.44c13.53,12.25,43.91-24.77,50.04-39.83 C207.74,153.25,174.4,103,166.23,95.59z M151.2,185.13c-0.03-0.28-0.07-0.56-0.1-0.85c-0.68-5.32-1.57-10.8-2.74-16.09l8.4-20.94 l8.7,10.21C165.46,157.46,153.91,172.06,151.2,185.13z" style="fill: rgb(96, 150, 145);"/></g><g id="__id16_sne7z580k"><path d="M155.51,232.27c-3.83,3.83-92.43,7.92-96.17,1.64c-2.61-4.38,2.34-13.21,2.34-13.21 c-4.92-11.19-1.3-43.67-2.69-63.76l-0.05-0.71l-0.92-15.66L57.99,140l-0.02-0.41c4.13-8.15,9.42-17.31,16.17-26.89 c6.39-9.07,12.85-16.75,18.83-23.15c2.72,1.34,7.36,3.19,13.41,3.63c8.96,0.65,17.55-2.61,17.55-2.61 c6.22,6.33,11.69,14.92,18.55,25.79c7.17,11.37,11.22,22.28,14.28,30.89c-2.8,6.98-5.6,13.96-8.4,20.94 c1.32,5.06,2.28,10.84,2.98,16.63c-0.03,0-0.06-0.47-0.11,0.03c0,0-3.06,9.69,1.18,12.63c0.04,0.03,0.08,0.05,0.11,0.07 c0.76,11.38,0.69,20.42,0.69,20.42S159.34,228.44,155.51,232.27z" style="fill: rgb(255, 255, 255);"/></g><g id="__id17_sne7z580k"><path d="M163.31,122.69l-6.06,24.68c-0.06,0.23-0.26,0.38-0.49,0.38c-0.04,0-0.08,0-0.12-0.01c-0.27-0.07-0.43-0.34-0.37-0.6 l6.06-24.68c0.07-0.27,0.34-0.44,0.6-0.37C163.21,122.16,163.38,122.43,163.31,122.69z M53.71,115.77c0-0.28-0.22-0.5-0.5-0.5 s-0.5,0.22-0.5,0.5c0,1.73,4.6,23.42,4.79,24.34c0.05,0.23,0.26,0.4,0.49,0.4c0.03,0,0.07,0,0.1-0.01c0.27-0.06,0.44-0.32,0.39-0.59 C57.15,133.65,53.71,117.12,53.71,115.77z M128.98,169.18c-0.03-0.13-0.01-0.27,0.06-0.38c0.07-0.11,0.18-0.19,0.31-0.23l4.73-1.14 c0.27-0.06,0.54,0.1,0.6,0.37l6.75,28.04c0.03,0.13,0.01,0.27-0.06,0.38c-0.07,0.11-0.18,0.19-0.31,0.23l-4.73,1.14 c-0.04,0.01-0.08,0.01-0.12,0.01c-0.23,0-0.43-0.15-0.49-0.38L128.98,169.18z M130.07,169.43l6.51,27.07l3.75-0.9l-6.51-27.07 L130.07,169.43z M76.17,196.23c-0.07-0.11-0.09-0.25-0.06-0.38l6.75-28.04c0.06-0.27,0.33-0.43,0.6-0.37l4.73,1.14 c0.13,0.03,0.24,0.11,0.31,0.23c0.07,0.11,0.09,0.25,0.06,0.38l-6.75,28.04c-0.06,0.23-0.26,0.38-0.49,0.38 c-0.04,0-0.08,0-0.12-0.01l-4.73-1.14C76.35,196.42,76.24,196.34,76.17,196.23z M77.2,195.6l3.76,0.9l6.51-27.07l-3.76-0.9 L77.2,195.6z M153.05,217.5c-0.22,0.07-15.39,4.91-40.66,5.45c1.04-19.21-1.24-52.65-1.36-54.38c3.32-16.79-0.59-69.34-1.01-74.81 c14.24-0.49,17.37-5.77,17.5-6c0.13-0.24,0.05-0.54-0.19-0.68c-0.24-0.14-0.54-0.05-0.68,0.19c-0.03,0.05-3.07,5.02-16.64,5.49 l0.79-20.65c0.01-0.28-0.21-0.51-0.48-0.52c-0.32-0.03-0.51,0.21-0.52,0.48l-0.79,20.7c-13.72,0.19-18.83-6.92-18.88-6.99 c-0.16-0.23-0.47-0.28-0.69-0.13c-0.23,0.16-0.29,0.47-0.13,0.69c0.21,0.31,5.26,7.44,19.15,7.44c0.19,0,0.38,0,0.57-0.01 c0.42,5.51,4.33,58.06,1.02,74.66c-0.01,0.04-0.01,0.09-0.01,0.13c0.03,0.35,2.42,34.85,1.36,54.4c-12.24,0.2-26.78-0.61-43.11-3.44 c-0.27-0.04-0.53,0.14-0.58,0.41s0.14,0.53,0.41,0.58c14.83,2.57,28.2,3.48,39.72,3.48c28.19,0,45.3-5.47,45.54-5.55 c0.26-0.09,0.41-0.37,0.32-0.63C153.6,217.56,153.32,217.41,153.05,217.5z M102.72,270.73L81.7,259.66 c-0.24-0.13-0.55-0.04-0.68,0.21c-0.13,0.25-0.03,0.55,0.21,0.68l21.02,11.07c0.07,0.04,0.15,0.06,0.23,0.06 c0.18,0,0.35-0.1,0.44-0.27C103.05,271.16,102.96,270.86,102.72,270.73z" style="fill: inherit;"/></g><g id="__id18_sne7z580k"><path d="M162.79,201.12c0,0-4.23,17.88-7.09,20.82c-2.86,2.94-11.18,9.96-12.97,9.96c-1.79,0-0.63-2.62-0.63-2.62 s-1.91,2.75-4.34,2.62c-2.43-0.13-0.77-2.94-0.77-2.94s-2.95,2.04-4.35,1.53c-2.48-0.89,0.51-11.87,1.15-14.43 c0.64-2.55,4.73-10.21,4.73-10.21s-3.11,0.93-4.13,1.69c-1.02,0.77-5.06,8.65-6.85,7.24s-0.77-4.21,0.13-6.77 c0.89-2.55,3.05-7.66,8.29-9.57c5.23-1.91,16.7-6.89,16.7-6.89C164,191.04,162.79,201.12,162.79,201.12z M55.74,179.5 c-0.09-0.05-0.2-0.08-0.3-0.08c-4.69-0.08-8.15,3.02-10.15,5.48c-1.31,1.62-1.61,3.82-0.77,5.72c2.12,4.77,6.46,14.48,8.69,19.19 c3.02,6.38,15.62,12.13,17.65,10.66c2.03-1.46,0.27-3.51,0.27-3.51s4.6,3.19,7.15,3.19s1.4-3.32,1.4-3.32s2.94,3.19,4.34,1.15 c1.4-2.05-2.81-9.95-3.96-12.12c-1.15-2.17-4.98-9.74-4.98-9.74l4.21,1.95c2.55,9.7,5.74,10.72,6.89,10.6 c1.15-0.13,0.38-4.98,0-6.64c-0.38-1.66-1.91-8.04-3.85-9.83c-1.27-1.17-9.98-4.98-15.82-7.45 C62.84,183.18,59.24,181.44,55.74,179.5L55.74,179.5z" style="fill: rgb(255, 191, 187);"/></g><g id="__id19_sne7z580k"><path d="M137,229.46c-0.05,0-0.1-0.01-0.15-0.02c-0.26-0.08-0.41-0.36-0.33-0.63c0.16-0.51,3.93-12.48,5.74-15.31 c0.15-0.23,0.46-0.3,0.69-0.15c0.23,0.15,0.3,0.46,0.15,0.69c-1.73,2.72-5.59,14.95-5.63,15.07 C137.41,229.32,137.21,229.46,137,229.46z M142.22,229.94c0.07-0.09,6.86-9.15,10.35-15.94c0.13-0.25,0.03-0.55-0.22-0.67 c-0.25-0.13-0.55-0.03-0.67,0.22c-3.45,6.71-10.19,15.71-10.26,15.8c-0.17,0.22-0.12,0.53,0.1,0.7c0.09,0.07,0.2,0.1,0.3,0.1 C141.97,230.14,142.12,230.07,142.22,229.94z M138.94,206.14l2.17-3.13c0.16-0.23,0.1-0.54-0.13-0.7c-0.23-0.16-0.54-0.1-0.7,0.13 l-2.17,3.13c-0.16,0.23-0.1,0.54,0.13,0.7c0.09,0.06,0.19,0.09,0.29,0.09C138.69,206.35,138.84,206.28,138.94,206.14z M79.98,217.23 c0.22-0.17,0.26-0.48,0.09-0.7l-11.49-15.06c-0.17-0.22-0.48-0.26-0.7-0.09c-0.22,0.17-0.26,0.48-0.09,0.7l11.49,15.06 c0.1,0.13,0.25,0.2,0.4,0.2C79.78,217.33,79.89,217.3,79.98,217.23z M71.52,217.26c0.17-0.22,0.12-0.53-0.1-0.7 c-0.07-0.05-6.63-4.98-9.37-8.22c-0.18-0.21-0.49-0.24-0.7-0.06c-0.21,0.18-0.24,0.49-0.06,0.7c2.81,3.32,9.26,8.17,9.53,8.38 c0.09,0.07,0.19,0.1,0.3,0.1C71.28,217.46,71.43,217.39,71.52,217.26z M79.74,198.28c0.12-0.25,0.01-0.55-0.24-0.67l-5.36-2.55 c-0.25-0.12-0.55-0.01-0.67,0.24c-0.12,0.25-0.01,0.55,0.24,0.67l5.36,2.55c0.07,0.03,0.14,0.05,0.21,0.05 C79.48,198.56,79.66,198.46,79.74,198.28z M129.18,35.5c0.4-1.18,0.94-1.86,1.6-2.02c1.07-0.26,2.22,0.85,2.23,0.86 c0.2,0.19,0.51,0.19,0.71-0.01c0.19-0.2,0.19-0.51-0.01-0.71c-0.06-0.06-1.56-1.5-3.16-1.12c-1.02,0.24-1.8,1.15-2.32,2.68 c-0.09,0.26,0.05,0.55,0.31,0.63c0.05,0.02,0.11,0.03,0.16,0.03C128.92,35.84,129.11,35.71,129.18,35.5z M89.73,42.91 c0.22-0.16,0.27-0.48,0.1-0.7c-1.3-1.76-2.63-2.6-3.94-2.49c-1.85,0.15-2.88,2.11-2.93,2.2c-0.13,0.24-0.03,0.55,0.21,0.67 c0.24,0.13,0.55,0.03,0.67-0.21c0.01-0.02,0.83-1.56,2.12-1.66c0.95-0.07,1.97,0.63,3.05,2.09c0.1,0.13,0.25,0.2,0.4,0.2 C89.53,43.01,89.64,42.97,89.73,42.91z M112.48,29.54c0.03-0.03,3.42-3.17,8.58-2.53c0.55,0.07,1.05-0.32,1.12-0.87 s-0.32-1.05-0.87-1.12c-6.14-0.77-10.04,2.91-10.21,3.07c-0.4,0.38-0.41,1.01-0.03,1.41c0.2,0.21,0.46,0.31,0.72,0.31 C112.04,29.81,112.29,29.72,112.48,29.54z M103.77,30.53c0.28-0.48,0.12-1.09-0.36-1.37c-0.24-0.14-5.88-3.35-11.35,0.01 c-0.47,0.29-0.62,0.9-0.33,1.38c0.29,0.47,0.9,0.62,1.38,0.33c4.43-2.72,9.1-0.1,9.3,0.01l0,0c0.16,0.09,0.33,0.13,0.5,0.13 C103.25,31.03,103.58,30.85,103.77,30.53z" style="fill: inherit;"/></g></svg>