<svg version="1.1" fill-rule="evenodd" clip-rule="evenodd" xmlns="http://www.w3.org/2000/svg" viewBox="302.3284630738523 1044.0245360000001 2574.051896207585 1073.856" style="max-height: 500px" width="2574.051896207585" height="1073.856">
 <g class="layer">
  <title>Layer 1</title>
  <g transform="translate(10 0) translate(10 0) translate(10 0) translate(10 0) translate(-10.5 -0.5) scale(1 0.667289) translate(10.5 0.5) translate(0 -10) matrix(1 0 0 1 0 20)" opacity="0" id="svg_1">
   <path id="svg_2" fill="#f2f5f1" d="m-0.5,-0.5c1066.67,0 2133.33,0 3200,0c0,1065.33 0,2130.67 0,3196c-1066.67,0 -2133.33,0 -3200,0c0,-1065.33 0,-2130.67 0,-3196z"/>
  </g>
  <g transform="translate(10 0) translate(10 0) translate(10 0) translate(10 0) translate(10 0) translate(10 0) translate(10 0) translate(10 0) translate(10 0) translate(10 0) translate(10 0) translate(10 0) translate(10 0) translate(10 0) translate(10 0) translate(10 0) translate(10 0) translate(10 0) translate(10 0) translate(10 0) translate(10 0) translate(-910 360)" id="svg_3">
   <path id="svg_4" fill="#9bad67" d="m1153.5,743.5c1.89,-0.2 3.39,0.46 4.5,2c6.31,10.92 10.64,22.58 13,35c0.33,37 0.67,74 1,111c-4.08,30.33 7.08,52.83 33.5,67.5c21.12,4.4 38.95,-1.43 53.5,-17.5c5.54,-7.07 8.87,-15.07 10,-24c1.11,-46.33 1.78,-92.66 2,-139c2.88,-12.59 8.05,-24.09 15.5,-34.5c1.28,-0.68 2.45,-0.52 3.5,0.5c7.64,11.91 12.3,24.91 14,39c0.33,39 0.67,78 1,117c-0.68,16.3 3.32,31.3 12,45c16.99,15.72 36.16,18.88 57.5,9.5c21.21,-12.27 30.71,-30.77 28.5,-55.5c0.33,-39 0.67,-78 1,-117c1.01,-13.51 5.51,-25.68 13.5,-36.5c4.54,-1.62 7.38,-0.12 8.5,4.5c2.07,5.55 3.74,11.22 5,17c1.16,19.31 1.83,38.64 2,58c0.67,46 0.67,92 0,138c-0.93,11.63 -3.26,22.96 -7,34c-2.54,5.87 -5.88,11.2 -10,16c-24.56,22.74 -53.73,32.58 -87.5,29.5c-4.11,1.78 -7.28,4.61 -9.5,8.5c-0.57,4.83 -1.07,9.66 -1.5,14.5c5.47,181.98 10.47,363.98 15,546c3.4,28.24 -8.26,46.58 -35,55c-21.14,3.17 -38.64,-3.33 -52.5,-19.5c-3.44,-5.55 -5.77,-11.55 -7,-18c2.72,-151.36 6.72,-302.69 12,-454c1.12,-40.67 1.79,-81.33 2,-122c-1.46,-5.13 -4.63,-8.63 -9.5,-10.5c-40.86,3.65 -72.36,-11.52 -94.5,-45.5c-5.55,-10.32 -8.88,-21.32 -10,-33c-0.67,-61.67 -0.67,-123.33 0,-185c2.76,-13.16 7.93,-25.16 15.5,-36z"/>
  </g>
  <g transform="translate(10 0) translate(10 0) translate(10 0) translate(10 0) translate(10 0) translate(10 0) translate(10 0) translate(10 0) translate(10 0) translate(10 0) translate(10 0) translate(10 0) translate(10 0) translate(10 0) translate(10 0) translate(10 0) translate(10 0) translate(10 0) translate(10 0) translate(10 0) translate(10 0) translate(-910 360)" id="svg_5">
   <path id="svg_6" fill="#9bad67" d="m1511.5,756.5c5.33,3.66 10.66,7.33 16,11c30.48,33.31 48.31,72.64 53.5,118c0.9,7.65 1.57,15.31 2,23c0.67,117.33 0.67,234.67 0,352c-1.71,5.38 -5.21,9.21 -10.5,11.5c-9.66,1.04 -19.33,2.04 -29,3c-2.61,1.94 -4.44,4.44 -5.5,7.5c1.54,103.05 4.87,206.05 10,309c0.67,16.67 0.67,33.33 0,50c-4.01,14.01 -13.18,22.51 -27.5,25.5c-8.41,0.91 -16.74,0.57 -25,-1c-8.96,-4.29 -16.8,-10.13 -23.5,-17.5c-1.93,-3.45 -3.26,-7.11 -4,-11c-0.2,-62.01 -0.7,-124.01 -1.5,-186c-0.19,-236.02 0.14,-472.02 1,-708c6.82,-0.38 13.49,0.46 20,2.5c8.18,3.22 16.18,6.72 24,10.5z"/>
  </g>
  <g transform="translate(10 0) translate(10 0) translate(10 0) translate(10 0) translate(10 0) translate(10 0) translate(10 0) translate(10 0) translate(10 0) translate(10 0) translate(10 0) translate(10 0) translate(10 0) translate(10 0) translate(10 0) translate(10 0) translate(10 0) translate(10 0) translate(10 0) translate(10 0) translate(10 0)" id="svg_7">
   <path id="svg_8" fill="#eaf4d3" d="m1527.5,767.5c-5.34,-3.67 -10.67,-7.34 -16,-11c0.62,-0.11 1.12,-0.44 1.5,-1c6.15,2.48 10.98,6.48 14.5,12z"/>
  </g>
  <g transform="translate(10 0) translate(10 0) translate(10 0) translate(10 0) translate(10 0) translate(10 0) translate(10 0) translate(10 0) translate(10 0) translate(10 0) translate(10 0) translate(10 0) translate(10 0) translate(10 0) translate(10 0) translate(10 0) translate(10 0) translate(10 0) translate(10 0) translate(10 0) translate(10 0) translate(-910 360)" id="svg_9">
   <path id="svg_10" fill="#9bad67" d="m1683.5,828.5c119.68,6.25 215.85,56.58 288.5,151c70.93,99.9 91.6,209.56 62,329c-35.77,121.77 -112.27,206.93 -229.5,255.5c-39.65,14.96 -80.65,22.8 -123,23.5c0,-8.67 0,-17.33 0,-26c109.72,-5.27 198.56,-50.61 266.5,-136c64.17,-87.17 86.17,-184.17 66,-291c-27.02,-116 -94.19,-199.5 -201.5,-250.5c-41.13,-17.87 -84.13,-27.7 -129,-29.5c0,-8.67 0,-17.33 0,-26z"/>
  </g>
  <g transform="translate(10 0) translate(10 0) translate(10 0) translate(10 0) translate(10 0) translate(10 0) translate(10 0) translate(10 0) translate(10 0) translate(10 0) translate(10 0) translate(10 0) translate(10 0) translate(10 0) translate(10 0) translate(10 0) translate(10 0) translate(10 0) translate(10 0) translate(10 0) translate(10 0) translate(-910 360)" id="svg_11">
   <path id="svg_12" fill="#9bad67" d="m1815.5,911.5c0.45,0.96 1.12,1.79 2,2.5c-3.29,1.41 -4.96,3.91 -5,7.5c-4.04,8.4 -8.87,16.4 -14.5,24c-1.78,12.72 3.72,19.72 16.5,21c3.92,-0.4 7.59,-1.56 11,-3.5c7.71,-9.24 14.04,-19.41 19,-30.5c1.22,-1.11 2.56,-1.28 4,-0.5c36.66,24.43 67.83,54.59 93.5,90.5c1.58,2.12 1.75,4.29 0.5,6.5c-11.24,5.53 -22.07,11.7 -32.5,18.5c-6.26,11.2 -4.09,20.37 6.5,27.5c6.71,1.86 13.05,0.86 19,-3c7.5,-4.92 15.17,-9.58 23,-14c1.87,-0.71 3.37,-0.21 4.5,1.5c4.12,10.24 8.79,20.24 14,30c12.64,32.84 19.14,66.84 19.5,102c-12.36,-0.18 -24.69,0.32 -37,1.5c-13.14,4.17 -15.64,12.01 -7.5,23.5c1.5,1.5 3,3 4.5,4.5c4.65,0.5 9.32,0.67 14,0.5c8.48,0.99 17.15,1.33 26,1c0,1.67 0,3.33 0,5c-0.9,31.75 -7.07,62.41 -18.5,92c-4.81,11.42 -9.81,22.75 -15,34c-1.02,1.19 -2.19,2.19 -3.5,3c-7.34,-4 -14.34,-8.5 -21,-13.5c-4.8,-2.4 -9.8,-4.23 -15,-5.5c-16.72,4.32 -20.88,13.99 -12.5,29c8.96,7.23 18.79,13.07 29.5,17.5c1.3,0.8 1.97,1.97 2,3.5c-5.49,10 -11.99,19.33 -19.5,28c-19.58,18.92 -39.08,37.75 -58.5,56.5c-5.03,4.52 -10.7,8.02 -17,10.5c-1.88,-0.38 -3.38,-1.38 -4.5,-3c-4.98,-11.82 -11.81,-22.32 -20.5,-31.5c-11.35,-3.67 -19.51,-0.17 -24.5,10.5c-0.73,5.17 -0.06,10.17 2,15c4.84,8.34 10.17,16.34 16,24c0.72,1.61 0.55,3.11 -0.5,4.5c-41.63,21.99 -85.96,34.16 -133,36.5c-0.42,-98.66 -0.42,-197.33 0,-296c3.9,1.62 7.56,3.79 11,6.5c15.33,12.67 30.67,25.33 46,38c14.95,7.03 24.28,2.53 28,-13.5c-0.55,-3.55 -1.72,-6.89 -3.5,-10c-24.65,-21.33 -49.81,-41.83 -75.5,-61.5c8.95,-12.73 17.78,-25.56 26.5,-38.5c15.61,-25.27 31.61,-50.27 48,-75c8.48,-17.63 18.48,-34.3 30,-50c9.67,-16.33 5.33,-26.66 -13,-31c-2.59,-0.12 -4.92,0.54 -7,2c-16.03,29.02 -34.03,56.68 -54,83c-11.85,18.37 -23.68,36.7 -35.5,55c-1.03,-90.67 -1.03,-181.33 0,-272c46.58,2.98 90.58,14.98 132,36z"/>
  </g>
  <g transform="translate(10 0) translate(10 0) translate(10 0) translate(10 0) translate(10 0) translate(10 0) translate(10 0) translate(10 0) translate(10 0) translate(10 0) translate(10 0) translate(10 0) translate(10 0) translate(10 0) translate(10 0) translate(10 0) translate(10 0) translate(10 0) translate(10 0) translate(10 0) translate(10 0)" id="svg_13">
   <path id="svg_14" fill="#e4efcd" d="m1815.5,911.5c1.88,0.21 3.22,1.21 4,3c-2.71,2.05 -5.05,4.38 -7,7c0.04,-3.59 1.71,-6.09 5,-7.5c-0.88,-0.71 -1.55,-1.54 -2,-2.5z"/>
  </g>
  <g transform="translate(10 0) translate(10 0) translate(10 0) translate(10 0) translate(10 0) translate(10 0) translate(10 0) translate(10 0) translate(10 0) translate(10 0) translate(10 0) translate(10 0) translate(10 0) translate(10 0) translate(10 0) translate(10 0) translate(10 0) translate(10 0) translate(10 0) translate(10 0) translate(10 0)" id="svg_15">
   <path id="svg_16" fill="#d7e3bf" d="m1970.5,1221.5c9,0 18,0 27,0c0.29,2.24 -0.04,4.24 -1,6c0,-1.67 0,-3.33 0,-5c-8.85,0.33 -17.52,-0.01 -26,-1z"/>
  </g>
  <g transform="translate(10 0) translate(10 0) translate(10 0) translate(10 0) translate(10 0) translate(10 0) translate(10 0) translate(10 0) translate(10 0) translate(10 0) translate(10 0) translate(10 0) translate(10 0) translate(10 0) translate(10 0) translate(10 0) translate(10 0) translate(10 0) translate(10 0) translate(10 0) translate(10 0) translate(10 0) translate(10 0) translate(10 0) translate(10 0) translate(10 0) translate(10 0) translate(10 0) translate(10 0) translate(10 0) translate(10 0) translate(10 0) translate(10 0) translate(10 0) translate(10 0) translate(10 0) translate(10 0) translate(10 0) translate(10 0) translate(10 0) translate(10 0) translate(10 0) translate(10 0) translate(10 0) translate(0 -10) translate(-10 0) translate(-10 0) translate(-10 0) translate(-10 0) translate(-10 0) translate(-10 0) translate(-10 0) translate(-10 0) translate(-10 0) translate(-10 0) translate(-10 0) translate(-10 0) translate(-10 0) translate(-10 0) translate(-10 0) translate(-10 0) translate(-10 0) translate(-10 0) translate(-10 0) translate(-10 0) translate(-10 0) translate(-10 0) translate(0 10) translate(0 10) translate(0 10) translate(10 0) translate(10 0) translate(10 0) translate(10 0) translate(10 0) translate(10 0) translate(10 0) translate(10 0) translate(10 0) translate(10 0) translate(10 0) translate(10 0) translate(10 0) translate(10 0) translate(10 0) translate(10 0) translate(10 0) translate(10 0) translate(10 0) translate(10 0) translate(10 0) translate(10 0) translate(10 0) translate(10 0) translate(10 0) translate(10 0) translate(10 0) translate(10 0) translate(0 -10) translate(0 -10) translate(0 -10) translate(0 -10) translate(0 -10) translate(0 -10) translate(0 -10) translate(0 -10) translate(0 -10) translate(0 -10) translate(0 -10) translate(0 -10) translate(0 -10) translate(0 -10) translate(0 -10) translate(0 -10) translate(0 -10) translate(0 -10) translate(0 -10) translate(0 -10) translate(0 -10) translate(0 -10) translate(0 -10) translate(0 -10) translate(0 -10) translate(0 -10) translate(0 -10) translate(0 -10) translate(0 -10) translate(0 -10) translate(0 -10) translate(0 -10) translate(0 -10) translate(0 -10) translate(0 -10) translate(0 -10) translate(0 -10) translate(0 -10) translate(0 -10) translate(0 -10) translate(0 -10) translate(0 -10) translate(0 -10) translate(0 -10) translate(0 -10) translate(0 -10) translate(0 -10) translate(0 -10) translate(0 -10) translate(0 -10) translate(0 -10)" id="svg_17">
   <path id="svg_18" fill="#9bad68" d="m1231.5,1939.5c5.24,10.52 10.41,21.19 15.5,32c23.12,54.9 46.78,109.57 71,164c5.41,9.91 13.57,16.24 24.5,19c1.16,3.62 1.33,7.29 0.5,11c-7.75,1.15 -15.59,1.31 -23.5,0.5c-14.23,-5.7 -25.73,-14.87 -34.5,-27.5c-5.03,-10.77 -9.86,-21.6 -14.5,-32.5c-30.33,-0.5 -60.66,-0.67 -91,-0.5c-7.37,19.75 -15.04,39.41 -23,59c-6.63,1 -13.3,1.33 -20,1c31.27,-75.49 62.94,-150.82 95,-226z"/>
  </g>
  <g transform="translate(10 0) translate(10 0) translate(10 0) translate(10 0) translate(10 0) translate(10 0) translate(10 0) translate(10 0) translate(10 0) translate(10 0) translate(10 0) translate(10 0) translate(10 0) translate(10 0) translate(10 0) translate(10 0) translate(10 0) translate(10 0) translate(10 0) translate(10 0) translate(10 0) translate(10 0) translate(10 0) translate(10 0) translate(10 0) translate(10 0) translate(10 0) translate(10 0) translate(10 0) translate(10 0) translate(10 0) translate(10 0) translate(10 0) translate(10 0) translate(10 0) translate(10 0) translate(10 0) translate(10 0) translate(10 0) translate(10 0) translate(10 0) translate(10 0) translate(10 0) translate(10 0) translate(0 -10) translate(-10 0) translate(-10 0) translate(-10 0) translate(-10 0) translate(-10 0) translate(-10 0) translate(-10 0) translate(-10 0) translate(-10 0) translate(-10 0) translate(-10 0) translate(-10 0) translate(-10 0) translate(-10 0) translate(-10 0) translate(-10 0) translate(-10 0) translate(-10 0) translate(-10 0) translate(-10 0) translate(-10 0) translate(-10 0) translate(0 10) translate(0 10) translate(0 10) translate(10 0) translate(10 0) translate(10 0) translate(10 0) translate(10 0) translate(10 0) translate(10 0) translate(10 0) translate(10 0) translate(10 0) translate(10 0) translate(10 0) translate(10 0) translate(10 0) translate(10 0) translate(10 0) translate(10 0) translate(10 0) translate(10 0) translate(10 0) translate(10 0) translate(10 0) translate(10 0) translate(10 0) translate(10 0) translate(10 0) translate(10 0) translate(10 0) translate(0 -10) translate(0 -10) translate(0 -10) translate(0 -10) translate(0 -10) translate(0 -10) translate(0 -10) translate(0 -10) translate(0 -10) translate(0 -10) translate(0 -10) translate(0 -10) translate(0 -10) translate(0 -10) translate(0 -10) translate(0 -10) translate(0 -10) translate(0 -10) translate(0 -10) translate(0 -10) translate(0 -10) translate(0 -10) translate(0 -10) translate(0 -10) translate(0 -10) translate(0 -10) translate(0 -10) translate(0 -10) translate(0 -10) translate(0 -10) translate(0 -10) translate(0 -10) translate(0 -10) translate(0 -10) translate(0 -10) translate(0 -10) translate(0 -10) translate(0 -10) translate(0 -10) translate(0 -10) translate(0 -10) translate(0 -10) translate(0 -10) translate(0 -10) translate(0 -10) translate(0 -10) translate(0 -10) translate(0 -10) translate(0 -10) translate(0 -10) translate(0 -10)" id="svg_19">
   <path id="svg_20" fill="#9bad68" d="m1852.5,1950.5c6.18,-0.45 12.18,0.05 18,1.5c-26.29,42.08 -52.46,84.25 -78.5,126.5c-0.5,28.66 -0.67,57.33 -0.5,86c-9,0 -18,0 -27,0c0.17,-28.67 0,-57.34 -0.5,-86c-0.72,-2.45 -1.72,-4.78 -3,-7c-19.16,-30.16 -39.5,-59.49 -61,-88c-8.17,-9.52 -18.01,-16.68 -29.5,-21.5c-3.33,-0.61 -6.66,-1.11 -10,-1.5c-0.23,-2.75 0.11,-5.42 1,-8c13.01,-1.2 26.01,-1.04 39,0.5c5.88,1.61 11.21,4.27 16,8c4.5,4.5 9,9 13.5,13.5c7.28,10.28 14.95,20.28 23,30c4.25,6.16 8.25,12.5 12,19c5.47,12.28 11.47,24.28 18,36c23.18,-36.36 46.34,-72.69 69.5,-109z"/>
  </g>
  <g transform="translate(10 0) translate(10 0) translate(10 0) translate(10 0) translate(10 0) translate(10 0) translate(10 0) translate(10 0) translate(10 0) translate(10 0) translate(10 0) translate(10 0) translate(10 0) translate(10 0) translate(10 0) translate(10 0) translate(10 0) translate(10 0) translate(10 0) translate(10 0) translate(10 0) translate(10 0) translate(10 0) translate(10 0) translate(10 0) translate(10 0) translate(10 0) translate(10 0) translate(10 0) translate(10 0) translate(10 0) translate(10 0) translate(10 0) translate(10 0) translate(10 0) translate(10 0) translate(10 0) translate(10 0) translate(10 0) translate(10 0) translate(10 0) translate(10 0) translate(10 0) translate(10 0) translate(0 -10) translate(-10 0) translate(-10 0) translate(-10 0) translate(-10 0) translate(-10 0) translate(-10 0) translate(-10 0) translate(-10 0) translate(-10 0) translate(-10 0) translate(-10 0) translate(-10 0) translate(-10 0) translate(-10 0) translate(-10 0) translate(-10 0) translate(-10 0) translate(-10 0) translate(-10 0) translate(-10 0) translate(-10 0) translate(-10 0) translate(0 10) translate(0 10) translate(0 10) translate(10 0) translate(10 0) translate(10 0) translate(10 0) translate(10 0) translate(10 0) translate(10 0) translate(10 0) translate(10 0) translate(10 0) translate(10 0) translate(10 0) translate(10 0) translate(10 0) translate(10 0) translate(10 0) translate(10 0) translate(10 0) translate(10 0) translate(10 0) translate(10 0) translate(10 0) translate(10 0) translate(10 0) translate(10 0) translate(10 0) translate(10 0) translate(10 0) translate(0 -10) translate(0 -10) translate(0 -10) translate(0 -10) translate(0 -10) translate(0 -10) translate(0 -10) translate(0 -10) translate(0 -10) translate(0 -10) translate(0 -10) translate(0 -10) translate(0 -10) translate(0 -10) translate(0 -10) translate(0 -10) translate(0 -10) translate(0 -10) translate(0 -10) translate(0 -10) translate(0 -10) translate(0 -10) translate(0 -10) translate(0 -10) translate(0 -10) translate(0 -10) translate(0 -10) translate(0 -10) translate(0 -10) translate(0 -10) translate(0 -10) translate(0 -10) translate(0 -10) translate(0 -10) translate(0 -10) translate(0 -10) translate(0 -10) translate(0 -10) translate(0 -10) translate(0 -10) translate(0 -10) translate(0 -10) translate(0 -10) translate(0 -10) translate(0 -10) translate(0 -10) translate(0 -10) translate(0 -10) translate(0 -10) translate(0 -10) translate(0 -10)" id="svg_21">
   <path id="svg_22" fill="#9bad67" d="m1437.5,2162.5c-8.06,1.92 -16.4,2.59 -25,2c-0.83,-10.83 -1.33,-21.83 -1.5,-33c-0.5,-53.33 -0.67,-106.67 -0.5,-160c0.96,-1.76 1.29,-3.76 1,-6c-5.53,-0.32 -10.86,0.01 -16,1c-12.46,-0.1 -24.8,1.07 -37,3.5c-10.93,4.87 -16.93,13.37 -18,25.5c-2.93,0.98 -5.93,1.32 -9,1c-0.39,-9.46 0.44,-18.79 2.5,-28c3.7,-8.1 9.87,-13.27 18.5,-15.5c53.34,-0.26 106.67,-0.76 160,-1.5c0,4.67 0,9.33 0,14c-25.01,-0.02 -50.01,0.31 -75,1c0,65.33 0,130.67 0,196z"/>
  </g>
  <g transform="translate(10 0) translate(10 0) translate(10 0) translate(10 0) translate(10 0) translate(10 0) translate(10 0) translate(10 0) translate(10 0) translate(10 0) translate(10 0) translate(10 0) translate(10 0) translate(10 0) translate(10 0) translate(10 0) translate(10 0) translate(10 0) translate(10 0) translate(10 0) translate(10 0) translate(10 0) translate(10 0) translate(10 0) translate(10 0) translate(10 0) translate(10 0) translate(10 0) translate(10 0) translate(10 0) translate(10 0) translate(10 0) translate(10 0) translate(10 0) translate(10 0) translate(10 0) translate(10 0) translate(10 0) translate(10 0) translate(10 0) translate(10 0) translate(10 0) translate(10 0) translate(10 0) translate(0 -10) translate(-10 0) translate(-10 0) translate(-10 0) translate(-10 0) translate(-10 0) translate(-10 0) translate(-10 0) translate(-10 0) translate(-10 0) translate(-10 0) translate(-10 0) translate(-10 0) translate(-10 0) translate(-10 0) translate(-10 0) translate(-10 0) translate(-10 0) translate(-10 0) translate(-10 0) translate(-10 0) translate(-10 0) translate(-10 0) translate(0 10) translate(0 10) translate(0 10) translate(10 0) translate(10 0) translate(10 0) translate(10 0) translate(10 0) translate(10 0) translate(10 0) translate(10 0) translate(10 0) translate(10 0) translate(10 0) translate(10 0) translate(10 0) translate(10 0) translate(10 0) translate(10 0) translate(10 0) translate(10 0) translate(10 0) translate(10 0) translate(10 0) translate(10 0) translate(10 0) translate(10 0) translate(10 0) translate(10 0) translate(10 0) translate(10 0) translate(0 -10) translate(0 -10) translate(0 -10) translate(0 -10) translate(0 -10) translate(0 -10) translate(0 -10) translate(0 -10) translate(0 -10) translate(0 -10) translate(0 -10) translate(0 -10) translate(0 -10) translate(0 -10) translate(0 -10) translate(0 -10) translate(0 -10) translate(0 -10) translate(0 -10) translate(0 -10) translate(0 -10) translate(0 -10) translate(0 -10) translate(0 -10) translate(0 -10) translate(0 -10) translate(0 -10) translate(0 -10) translate(0 -10) translate(0 -10) translate(0 -10) translate(0 -10) translate(0 -10) translate(0 -10) translate(0 -10) translate(0 -10) translate(0 -10) translate(0 -10) translate(0 -10) translate(0 -10) translate(0 -10) translate(0 -10) translate(0 -10) translate(0 -10) translate(0 -10) translate(0 -10) translate(0 -10) translate(0 -10) translate(0 -10) translate(0 -10) translate(0 -10)" id="svg_23">
   <path id="svg_24" fill="#9bad68" d="m997.5,1966.5c-1.99,16.3 -2.65,32.97 -2,50c0,10.67 0,21.33 0,32c29.34,-0.17 58.67,0 88,0.5c1.31,3.8 1.31,7.64 0,11.5c-29,0.81 -58,1.47 -87,2c-0.82,29.66 -1.15,59.33 -1,89c24.01,0.15 48.01,-0.35 72,-1.5c10.56,-1.2 19.4,-5.7 26.5,-13.5c4.63,-7.08 9.13,-14.25 13.5,-21.5c2.39,-0.3 4.06,0.7 5,3c-3.57,11.72 -7.74,23.22 -12.5,34.5c-3.97,4.98 -8.8,8.81 -14.5,11.5c-38.63,1.63 -77.3,1.96 -116,1c-0.83,-55.1 -1.33,-110.26 -1.5,-165.5c-0.3,-8.7 -0.97,-17.36 -2,-26c-1.07,-6.36 -4.57,-10.52 -10.5,-12.5c-5.63,-0.9 -11.3,-1.4 -17,-1.5c-0.26,-2.29 0.08,-4.46 1,-6.5c48.33,-0.67 96.67,-0.67 145,0c7.36,2.69 12.86,7.52 16.5,14.5c0.92,10.66 1.25,21.33 1,32c-2.04,0.92 -4.21,1.26 -6.5,1c-0.75,-12.67 -6.08,-22.84 -16,-30.5c-2.29,-0.82 -4.62,-1.49 -7,-2c-24.99,-1.19 -49.99,-1.69 -75,-1.5z"/>
  </g>
  <g transform="translate(10 0) translate(10 0) translate(10 0) translate(10 0) translate(10 0) translate(10 0) translate(10 0) translate(10 0) translate(10 0) translate(10 0) translate(10 0) translate(10 0) translate(10 0) translate(10 0) translate(10 0) translate(10 0) translate(10 0) translate(10 0) translate(10 0) translate(10 0) translate(10 0) translate(10 0) translate(10 0) translate(10 0) translate(10 0) translate(10 0) translate(10 0) translate(10 0) translate(10 0) translate(10 0) translate(10 0) translate(10 0) translate(10 0) translate(10 0) translate(10 0) translate(10 0) translate(10 0) translate(10 0) translate(10 0) translate(10 0) translate(10 0) translate(10 0) translate(10 0) translate(10 0) translate(0 -10) translate(-10 0) translate(-10 0) translate(-10 0) translate(-10 0) translate(-10 0) translate(-10 0) translate(-10 0) translate(-10 0) translate(-10 0) translate(-10 0) translate(-10 0) translate(-10 0) translate(-10 0) translate(-10 0) translate(-10 0) translate(-10 0) translate(-10 0) translate(-10 0) translate(-10 0) translate(-10 0) translate(-10 0) translate(-10 0) translate(0 10) translate(0 10) translate(0 10) translate(10 0) translate(10 0) translate(10 0) translate(10 0) translate(10 0) translate(10 0) translate(10 0) translate(10 0) translate(10 0) translate(10 0) translate(10 0) translate(10 0) translate(10 0) translate(10 0) translate(10 0) translate(10 0) translate(10 0) translate(10 0) translate(10 0) translate(10 0) translate(10 0) translate(10 0) translate(10 0) translate(10 0) translate(10 0) translate(10 0) translate(10 0) translate(10 0) translate(0 -10) translate(0 -10) translate(0 -10) translate(0 -10) translate(0 -10) translate(0 -10) translate(0 -10) translate(0 -10) translate(0 -10) translate(0 -10) translate(0 -10) translate(0 -10) translate(0 -10) translate(0 -10) translate(0 -10) translate(0 -10) translate(0 -10) translate(0 -10) translate(0 -10) translate(0 -10) translate(0 -10) translate(0 -10) translate(0 -10) translate(0 -10) translate(0 -10) translate(0 -10) translate(0 -10) translate(0 -10) translate(0 -10) translate(0 -10) translate(0 -10) translate(0 -10) translate(0 -10) translate(0 -10) translate(0 -10) translate(0 -10) translate(0 -10) translate(0 -10) translate(0 -10) translate(0 -10) translate(0 -10) translate(0 -10) translate(0 -10) translate(0 -10) translate(0 -10) translate(0 -10) translate(0 -10) translate(0 -10) translate(0 -10) translate(0 -10) translate(0 -10)" id="svg_25">
   <path id="svg_26" fill="#9bad67" d="m1528.5,1952.5c14.06,-0.43 28.06,0.07 42,1.5c6.57,2.24 10.74,6.74 12.5,13.5c0.88,3.29 1.55,6.62 2,10c0.5,58 0.67,116 0.5,174c38,0 76,0 114,0c0,4.33 0,8.67 0,13c-48,0 -96,0 -144,0c-0.23,-62.35 -1.07,-124.68 -2.5,-187c-1.13,-6.41 -3.97,-11.91 -8.5,-16.5c-5.59,-1.29 -11.26,-1.79 -17,-1.5c-0.2,-2.45 0.13,-4.78 1,-7z"/>
  </g>
  <g transform="translate(10 0) translate(10 0) translate(10 0) translate(10 0) translate(10 0) translate(10 0) translate(10 0) translate(10 0) translate(10 0) translate(10 0) translate(10 0) translate(10 0) translate(10 0) translate(10 0) translate(10 0) translate(10 0) translate(10 0) translate(10 0) translate(10 0) translate(10 0) translate(10 0) translate(10 0) translate(10 0) translate(10 0) translate(10 0) translate(10 0) translate(10 0) translate(10 0) translate(10 0) translate(10 0) translate(10 0) translate(10 0) translate(10 0) translate(10 0) translate(10 0) translate(10 0) translate(10 0) translate(10 0) translate(10 0) translate(10 0) translate(10 0) translate(10 0) translate(10 0) translate(10 0) translate(0 -10) translate(-10 0) translate(-10 0) translate(-10 0) translate(-10 0) translate(-10 0) translate(-10 0) translate(-10 0) translate(-10 0) translate(-10 0) translate(-10 0) translate(-10 0) translate(-10 0) translate(-10 0) translate(-10 0) translate(-10 0) translate(-10 0) translate(-10 0) translate(-10 0) translate(-10 0) translate(-10 0) translate(-10 0) translate(-10 0) translate(0 10) translate(0 10) translate(0 10) translate(10 0) translate(10 0) translate(10 0) translate(10 0) translate(10 0) translate(10 0) translate(10 0) translate(10 0) translate(10 0) translate(10 0) translate(10 0) translate(10 0) translate(10 0) translate(10 0) translate(10 0) translate(10 0) translate(10 0) translate(10 0) translate(10 0) translate(10 0) translate(10 0) translate(10 0) translate(10 0) translate(10 0) translate(10 0) translate(10 0) translate(10 0) translate(10 0) translate(0 -10) translate(0 -10) translate(0 -10) translate(0 -10) translate(0 -10) translate(0 -10) translate(0 -10) translate(0 -10) translate(0 -10) translate(0 -10) translate(0 -10) translate(0 -10) translate(0 -10) translate(0 -10) translate(0 -10) translate(0 -10) translate(0 -10) translate(0 -10) translate(0 -10) translate(0 -10) translate(0 -10) translate(0 -10) translate(0 -10) translate(0 -10) translate(0 -10) translate(0 -10) translate(0 -10) translate(0 -10) translate(0 -10) translate(0 -10) translate(0 -10) translate(0 -10) translate(0 -10) translate(0 -10) translate(0 -10) translate(0 -10) translate(0 -10) translate(0 -10) translate(0 -10) translate(0 -10) translate(0 -10) translate(0 -10) translate(0 -10) translate(0 -10) translate(0 -10) translate(0 -10) translate(0 -10) translate(0 -10) translate(0 -10) translate(0 -10) translate(0 -10)" id="svg_27">
   <path id="svg_28" fill="#9bad68" d="m1916.5,1952.5c49.34,-0.33 98.67,0 148,1c-44.67,65.67 -89.33,131.33 -134,197c43.33,1 86.66,1.33 130,1c0,4.33 0,8.67 0,13c-57.67,0.17 -115.33,0 -173,-0.5c44.86,-65.36 89.53,-130.86 134,-196.5c-26.66,-1.17 -53.33,-1.33 -80,-0.5c-12.29,-0.1 -22.79,4.07 -31.5,12.5c-3,6.34 -5,13.01 -6,20c-2.07,2.15 -4.41,2.48 -7,1c-1.12,-10.15 -0.46,-20.15 2,-30c3.38,-8.54 9.21,-14.54 17.5,-18z"/>
  </g>
  <g transform="translate(10 0) translate(10 0) translate(10 0) translate(10 0) translate(10 0) translate(10 0) translate(10 0) translate(10 0) translate(10 0) translate(10 0) translate(10 0) translate(10 0) translate(10 0) translate(10 0) translate(10 0) translate(10 0) translate(10 0) translate(10 0) translate(10 0) translate(10 0) translate(10 0) translate(10 0) translate(10 0) translate(10 0) translate(10 0) translate(10 0) translate(10 0) translate(10 0) translate(10 0) translate(10 0) translate(10 0) translate(10 0) translate(10 0) translate(10 0) translate(10 0) translate(10 0) translate(10 0) translate(10 0) translate(10 0) translate(10 0) translate(10 0) translate(10 0) translate(10 0) translate(10 0) translate(0 -10) translate(-10 0) translate(-10 0) translate(-10 0) translate(-10 0) translate(-10 0) translate(-10 0) translate(-10 0) translate(-10 0) translate(-10 0) translate(-10 0) translate(-10 0) translate(-10 0) translate(-10 0) translate(-10 0) translate(-10 0) translate(-10 0) translate(-10 0) translate(-10 0) translate(-10 0) translate(-10 0) translate(-10 0) translate(-10 0) translate(0 10) translate(0 10) translate(0 10) translate(10 0) translate(10 0) translate(10 0) translate(10 0) translate(10 0) translate(10 0) translate(10 0) translate(10 0) translate(10 0) translate(10 0) translate(10 0) translate(10 0) translate(10 0) translate(10 0) translate(10 0) translate(10 0) translate(10 0) translate(10 0) translate(10 0) translate(10 0) translate(10 0) translate(10 0) translate(10 0) translate(10 0) translate(10 0) translate(10 0) translate(10 0) translate(10 0) translate(0 -10) translate(0 -10) translate(0 -10) translate(0 -10) translate(0 -10) translate(0 -10) translate(0 -10) translate(0 -10) translate(0 -10) translate(0 -10) translate(0 -10) translate(0 -10) translate(0 -10) translate(0 -10) translate(0 -10) translate(0 -10) translate(0 -10) translate(0 -10) translate(0 -10) translate(0 -10) translate(0 -10) translate(0 -10) translate(0 -10) translate(0 -10) translate(0 -10) translate(0 -10) translate(0 -10) translate(0 -10) translate(0 -10) translate(0 -10) translate(0 -10) translate(0 -10) translate(0 -10) translate(0 -10) translate(0 -10) translate(0 -10) translate(0 -10) translate(0 -10) translate(0 -10) translate(0 -10) translate(0 -10) translate(0 -10) translate(0 -10) translate(0 -10) translate(0 -10) translate(0 -10) translate(0 -10) translate(0 -10) translate(0 -10) translate(0 -10) translate(0 -10)" id="svg_29">
   <path id="svg_30" fill="#9bad68" d="m2168.5,1966.5c-8.48,-0.99 -17.15,-1.33 -26,-1c0,1 0,2 0,3c0,26.67 0,53.33 0,80c28.67,-0.17 57.34,0 86,0.5c1.33,4 1.33,8 0,12c-28.66,0.5 -57.33,0.67 -86,0.5c0,30 0,60 0,90c22.34,0.17 44.67,0 67,-0.5c11.2,-0.44 20.87,-4.44 29,-12c5.39,-6.61 9.89,-13.78 13.5,-21.5c3.23,-4.14 5.4,-3.64 6.5,1.5c-3.26,13.12 -8.09,25.62 -14.5,37.5c-5.24,6.53 -12.07,9.36 -20.5,8.5c-36.33,0.67 -72.67,0.67 -109,0c-0.6,-63.44 -1.44,-126.94 -2.5,-190.5c-0.68,-4.71 -2.51,-8.87 -5.5,-12.5c-6.83,-1.99 -13.83,-2.82 -21,-2.5c-0.26,-2.29 0.08,-4.46 1,-6.5c48.33,-0.67 96.67,-0.67 145,0c7.86,2.53 13.03,7.69 15.5,15.5c2.2,10.27 2.7,20.6 1.5,31c-2.53,1.29 -5.03,1.29 -7.5,0c0.31,-13.48 -5.19,-23.65 -16.5,-30.5c-3.94,-0.99 -7.94,-1.66 -12,-2c-14.66,-0.5 -29.33,-0.67 -44,-0.5z"/>
  </g>
  <g transform="translate(10 0) translate(10 0) translate(10 0) translate(10 0) translate(10 0) translate(10 0) translate(10 0) translate(10 0) translate(10 0) translate(10 0) translate(10 0) translate(10 0) translate(10 0) translate(10 0) translate(10 0) translate(10 0) translate(10 0) translate(10 0) translate(10 0) translate(10 0) translate(10 0)" id="svg_31">
   <path id="svg_32" fill="#8eb540" d="m2087.5,1954.5c13.07,-0.06 13.07,0.94 0,3c0,-1 0,-2 0,-3z"/>
  </g>
  <g transform="translate(10 0) translate(10 0) translate(10 0) translate(10 0) translate(10 0) translate(10 0) translate(10 0) translate(10 0) translate(10 0) translate(10 0) translate(10 0) translate(10 0) translate(10 0) translate(10 0) translate(10 0) translate(10 0) translate(10 0) translate(10 0) translate(10 0) translate(10 0) translate(10 0)" id="svg_33">
   <path id="svg_34" fill="#d3dcbb" d="m1395.5,1966.5c5.14,-0.99 10.47,-1.32 16,-1c0.29,2.24 -0.04,4.24 -1,6c0,-1.67 0,-3.33 0,-5c-5,0 -10,0 -15,0z"/>
  </g>
  <g transform="translate(10 0) translate(10 0) translate(10 0) translate(10 0) translate(10 0) translate(10 0) translate(10 0) translate(10 0) translate(10 0) translate(10 0) translate(10 0) translate(10 0) translate(10 0) translate(10 0) translate(10 0) translate(10 0) translate(10 0) translate(10 0) translate(10 0) translate(10 0) translate(10 0)" id="svg_35">
   <path id="svg_36" fill="#d4e3c1" d="m2168.5,1966.5c-8.93,-0.59 -17.6,0.08 -26,2c0,-1 0,-2 0,-3c8.85,-0.33 17.52,0.01 26,1z"/>
  </g>
  <g transform="translate(10 0) translate(10 0) translate(10 0) translate(10 0) translate(10 0) translate(10 0) translate(10 0) translate(10 0) translate(10 0) translate(10 0) translate(10 0) translate(10 0) translate(10 0) translate(10 0) translate(10 0) translate(10 0) translate(10 0) translate(10 0) translate(10 0) translate(10 0) translate(10 0)" id="svg_37">
   <path id="svg_38" fill="#eaf5db" d="m997.5,1966.5c-0.65,16.76 -1.32,33.43 -2,50c-0.65,-17.03 0.01,-33.7 2,-50z"/>
  </g>
  <g transform="translate(10 0) translate(10 0) translate(10 0) translate(10 0) translate(10 0) translate(10 0) translate(10 0) translate(10 0) translate(10 0) translate(10 0) translate(10 0) translate(10 0) translate(10 0) translate(10 0) translate(10 0) translate(10 0) translate(10 0) translate(10 0) translate(10 0) translate(10 0) translate(10 0)" id="svg_39">
   <path id="svg_40" fill="#83b23e" d="m1096.5,1991.5c3.64,0.88 4.81,3.22 3.5,7c-1,1.33 -2,1.33 -3,0c-0.5,-2.31 -0.66,-4.64 -0.5,-7z"/>
  </g>
  <g transform="translate(10 0) translate(10 0) translate(10 0) translate(10 0) translate(10 0) translate(10 0) translate(10 0) translate(10 0) translate(10 0) translate(10 0) translate(10 0) translate(10 0) translate(10 0) translate(10 0) translate(10 0) translate(10 0) translate(10 0) translate(10 0) translate(10 0) translate(10 0) translate(10 0) translate(10 0) translate(10 0) translate(10 0) translate(10 0) translate(10 0) translate(10 0) translate(10 0) translate(10 0) translate(10 0) translate(10 0) translate(10 0) translate(10 0) translate(10 0) translate(10 0) translate(10 0) translate(10 0) translate(10 0) translate(10 0) translate(10 0) translate(10 0) translate(10 0) translate(10 0) translate(10 0) translate(0 -10) translate(-10 0) translate(-10 0) translate(-10 0) translate(-10 0) translate(-10 0) translate(-10 0) translate(-10 0) translate(-10 0) translate(-10 0) translate(-10 0) translate(-10 0) translate(-10 0) translate(-10 0) translate(-10 0) translate(-10 0) translate(-10 0) translate(-10 0) translate(-10 0) translate(-10 0) translate(-10 0) translate(-10 0) translate(-10 0) translate(0 10) translate(0 10) translate(0 10) translate(10 0) translate(10 0) translate(10 0) translate(10 0) translate(10 0) translate(10 0) translate(10 0) translate(10 0) translate(10 0) translate(10 0) translate(10 0) translate(10 0) translate(10 0) translate(10 0) translate(10 0) translate(10 0) translate(10 0) translate(10 0) translate(10 0) translate(10 0) translate(10 0) translate(10 0) translate(10 0) translate(10 0) translate(10 0) translate(10 0) translate(10 0) translate(10 0) translate(0 -10) translate(0 -10) translate(0 -10) translate(0 -10) translate(0 -10) translate(0 -10) translate(0 -10) translate(0 -10) translate(0 -10) translate(0 -10) translate(0 -10) translate(0 -10) translate(0 -10) translate(0 -10) translate(0 -10) translate(0 -10) translate(0 -10) translate(0 -10) translate(0 -10) translate(0 -10) translate(0 -10) translate(0 -10) translate(0 -10) translate(0 -10) translate(0 -10) translate(0 -10) translate(0 -10) translate(0 -10) translate(0 -10) translate(0 -10) translate(0 -10) translate(0 -10) translate(0 -10) translate(0 -10) translate(0 -10) translate(0 -10) translate(0 -10) translate(0 -10) translate(0 -10) translate(0 -10) translate(0 -10) translate(0 -10) translate(0 -10) translate(0 -10) translate(0 -10) translate(0 -10) translate(0 -10) translate(0 -10) translate(0 -10) translate(0 -10) translate(0 -10)" id="svg_41">
   <path id="svg_42" fill="#f7faf4" d="m1261.5,2089.5c-12.15,1.33 -24.65,2 -37.5,2c-12.67,0 -25.17,-0.33 -37.5,-1c11.77,-31.54 24.1,-62.88 37,-94c12.94,30.88 25.6,61.88 38,93z"/>
  </g>
  <g transform="translate(10 0) translate(10 0) translate(10 0) translate(10 0) translate(10 0) translate(10 0) translate(10 0) translate(10 0) translate(10 0) translate(10 0) translate(10 0) translate(10 0) translate(10 0) translate(10 0) translate(10 0) translate(10 0) translate(10 0) translate(10 0) translate(10 0) translate(10 0) translate(10 0)" id="svg_43">
   <path id="svg_44" fill="#ebf3d2" d="m1261.5,2089.5c0.98,0.31 1.64,0.98 2,2c-26,1.33 -52,1.33 -78,0c0.12,-0.61 0.46,-0.94 1,-1c12.33,0.67 24.83,1 37.5,1c12.85,0 25.35,-0.67 37.5,-2z"/>
  </g>
  <g transform="translate(10 0) translate(10 0) translate(10 0) translate(10 0) translate(10 0) translate(10 0) translate(10 0) translate(10 0) translate(10 0) translate(10 0) translate(10 0) translate(10 0) translate(10 0) translate(10 0) translate(10 0) translate(10 0) translate(10 0) translate(10 0) translate(10 0) translate(10 0) translate(10 0)" id="svg_45">
   <path id="svg_46" fill="#d3e1c0" d="m1437.5,2162.5c0,1 0,2 0,3c-8.52,0.33 -16.85,-0.01 -25,-1c8.6,0.59 16.94,-0.08 25,-2z"/>
  </g>
 </g>
</svg>