<svg xmlns="http://www.w3.org/2000/svg" xmlns:xlink="http://www.w3.org/1999/xlink" preserveAspectRatio="xMidYMid meet" version="1.0" viewBox="-0.1 -37.1 503.3 537.1" zoomAndPan="magnify" style="fill: rgb(0, 0, 0);" original_string_length="13120"><g id="__id5_sne7z580k"><path d="M493.098,214.676c-4.537-15.631-15.903-28.789-27.326-38.692c29.698-46.269,37.483-93.662,9.352-124.599 c-65.707-72.264-157.841-0.905-157.841-0.905s-76.877-87.583-155.131-29.138c-29.108,21.74-33.945,60.839-21.367,104.219 c-15.657,6.993-34.853,18.64-44.632,36.316c-7.021,12.692-8.309,26.922-3.725,41.151c4.967,15.416,20.375,24.612,48.583,27.939 l0,0.003c0.048,0.006,0.099,0.01,0.148,0.016c0.469,0.055,0.953,0.104,1.429,0.155c0.612,0.066,1.222,0.133,1.845,0.194 c0.526,0.052,1.063,0.098,1.597,0.146c0.594,0.053,1.189,0.106,1.793,0.154c0.556,0.044,1.12,0.085,1.685,0.126 c0.603,0.043,1.21,0.085,1.824,0.124c0.579,0.037,1.163,0.071,1.752,0.104c0.618,0.034,1.243,0.066,1.871,0.095 c0.601,0.029,1.203,0.057,1.813,0.081c0.637,0.026,1.284,0.047,1.932,0.068c0.616,0.02,1.23,0.041,1.856,0.058 c0.681,0.018,1.376,0.029,2.068,0.042c0.608,0.011,1.21,0.025,1.827,0.033c0.853,0.011,1.723,0.013,2.592,0.017 c0.449,0.002,0.885,0.009,1.338,0.009c9.788,0,20.598-0.437,32.46-1.297c4.43,5.141,9.043,10.188,13.821,15.119L58.274,334.626 c-29.319-43.119-57.036-36.219-57.036-36.219l49.65,87.581l193.586-112.414c15.067,12.261,31.248,23.247,48.283,32.411 c9.562-2.98,18.993-6.482,28.243-10.439l-53.384,160.147c-50.659-12.352-66.605,11.345-66.605,11.345l95.546,31.725l71.927-228.379 c4.727-3.012,9.367-6.13,13.913-9.344c8.811,2.563,17.036,4.716,24.678,6.448c44.793,10.151,69.955,6.066,80.563-11.854 C495.253,242.768,497.141,228.606,493.098,214.676z M125.396,178.101c4.865-8.831,16.39-16.045,27.205-21.089 c6.393,13.952,14.326,28.014,23.596,41.798c-0.211,0.005-0.42,0.01-0.629,0.015c-0.696,0.016-1.388,0.031-2.066,0.043 c-0.213,0.004-0.422,0.006-0.634,0.01c-0.689,0.011-1.372,0.02-2.042,0.027c-0.188,0.002-0.371,0.003-0.557,0.004 c-0.681,0.006-1.356,0.01-2.018,0.011c-0.162,0-0.32,0-0.481,0c-0.679,0-1.353-0.001-2.012-0.005 c-0.115-0.001-0.226-0.002-0.34-0.003c-0.693-0.005-1.378-0.012-2.048-0.022c-0.073-0.001-0.144-0.003-0.217-0.004 c-29.934-0.468-37.66-5.536-39.095-6.765C122.518,186.911,122.939,182.562,125.396,178.101z M459.199,238.005 c-1.755,0.926-11.219,4.45-44.221-3.048c11.276-10.199,21.616-20.924,30.819-31.921c6.959,6.301,13.067,13.62,15.195,21 C462.403,228.929,461.852,233.264,459.199,238.005z" style="fill: rgb(255, 125, 123);"/></g><g id="__id6_sne7z580k"><path d="M282.184,96.487c0.423,0.935,0.009,2.036-0.926,2.459c-0.249,0.114-0.509,0.167-0.766,0.167 c-0.707,0-1.383-0.405-1.693-1.091c-2.885-6.372-10.814-10.903-19.73-11.275c-8.93-0.383-17.194,3.482-20.599,9.593 c-0.5,0.895-1.63,1.218-2.527,0.718c-0.896-0.5-1.217-1.632-0.718-2.528c4.136-7.42,13.561-11.934,23.999-11.497 C269.668,83.468,278.68,88.751,282.184,96.487z M363.576,87.979c-10.449-0.436-19.864,4.08-24,11.497 c-0.499,0.896-0.178,2.028,0.718,2.528c0.897,0.499,2.027,0.177,2.527-0.718c3.406-6.109,11.691-9.964,20.6-9.593 c8.915,0.372,16.844,4.903,19.729,11.276c0.311,0.686,0.986,1.091,1.694,1.091c0.256,0,0.517-0.053,0.765-0.167 c0.935-0.423,1.35-1.524,0.927-2.459C383.033,93.697,374.02,88.414,363.576,87.979z M328.026,110.446 c-0.89-0.509-2.025-0.203-2.536,0.686c-2.612,4.55-8.877,7.373-15.608,6.993c-6.724-0.366-12.656-3.84-14.759-8.644 c-0.411-0.94-1.505-1.369-2.447-0.957c-0.94,0.411-1.369,1.507-0.957,2.447c2.693,6.153,9.743,10.416,17.96,10.864 c0.474,0.026,0.944,0.039,1.413,0.039c7.651,0,14.468-3.404,17.62-8.892C329.223,112.092,328.916,110.956,328.026,110.446z M488.7,256.268c-7.089,11.974-20.371,17.886-40.856,17.887c-11.394,0-25.017-1.83-41.045-5.461 c-7.5-1.699-15.553-3.799-24.199-6.303c-4.294,3.021-8.649,5.939-13.056,8.752L297.74,499.134c-0.099,0.316-0.322,0.579-0.617,0.731 c-0.178,0.089-0.372,0.135-0.566,0.135c-0.131,0-0.263-0.021-0.39-0.063l-95.545-31.725c-0.368-0.122-0.657-0.409-0.782-0.775 c-0.125-0.367-0.072-0.771,0.145-1.092c0.666-0.988,16.779-23.926,66.817-12.122l52.167-156.494 c-8.577,3.587-17.211,6.747-25.844,9.438c-0.12,0.038-0.244,0.056-0.368,0.056c-0.203,0-0.405-0.05-0.587-0.148 c-16.453-8.851-32.531-19.659-47.791-32.014L51.51,387.06c-0.191,0.11-0.405,0.167-0.622,0.167c-0.108,0-0.217-0.014-0.324-0.044 c-0.319-0.086-0.591-0.296-0.754-0.584L0.16,299.018c-0.191-0.336-0.213-0.744-0.06-1.1s0.463-0.619,0.839-0.714 c0.073-0.018,1.811-0.441,4.815-0.441c8.421,0,30.317,3.55,52.9,36.226l154.018-87.072c-4.227-4.398-8.346-8.916-12.347-13.539 c-1.816,0.13-3.612,0.252-5.375,0.361c-9.599,0.596-18.429,0.891-26.571,0.891c-1.351,0-2.682-0.01-3.999-0.026 c-0.515-0.007-1.018-0.019-1.528-0.028c-0.792-0.014-1.585-0.028-2.364-0.049c-0.58-0.015-1.15-0.035-1.722-0.054 c-0.703-0.023-1.405-0.046-2.096-0.074c-0.552-0.022-1.096-0.048-1.641-0.074c-0.736-0.035-1.466-0.072-2.189-0.112 c-0.45-0.025-0.898-0.052-1.343-0.08c-0.87-0.054-1.727-0.113-2.576-0.176c-0.278-0.021-0.558-0.041-0.834-0.062 c-2.499-0.195-4.916-0.424-7.221-0.696c-0.021-0.002-0.037-0.015-0.057-0.019c-28.437-3.38-44.398-12.748-49.561-28.774 c-4.692-14.563-3.371-29.132,3.82-42.131c9.721-17.572,28.552-29.257,44.194-36.382c-3.14-11.097-5.139-21.893-5.903-32.2 c-2.362-31.858,7.339-56.875,28.051-72.344C179.49,6.846,199.016,0,219.444,0c50.58,0,91.902,42.266,97.998,48.818 c6.327-4.616,44.403-31.025,86.967-31.025c27.767,0,51.867,11.022,71.632,32.758c17.392,19.127,22.157,45.531,13.778,76.358 c-4.321,15.897-11.944,32.419-22.406,48.884c11.284,9.947,22.371,23.034,26.872,38.542C498.425,228.601,496.494,243.1,488.7,256.268 z M249.401,224.768c26.307-3.434,55.467-8.199,86.67-14.161c0.434-0.079,0.878,0.071,1.167,0.405 c6.183,7.118,13.757,8.203,22.527,9.46c0.866,0.125,1.738,0.249,2.615,0.381c8.105,1.225,23.794,1.714,25.162-5.171 c0.086-0.79-0.145-1.501-0.74-2.135c-2.411-2.563-9.677-2.789-12.369-2.663c-0.024,0.001-0.071-0.002-0.067,0.004 c-0.019,0.005-0.044,0.001-0.066,0.001c-0.655,0-1.202-0.514-1.236-1.176c-0.035-0.682,0.489-1.264,1.172-1.3 c0.001,0,0.002,0,0.004,0c0.005,0.01,0.05-0.004,0.079-0.004c10.194-0.514,26.691-3.413,27.809-9.044 c0.336-1.46-0.108-2.166-0.469-2.575c-3.005-3.381-15.409-2.037-22.077-1.315c-1.523,0.165-2.83,0.306-3.801,0.374 c-0.604,0.046-1.134-0.345-1.285-0.921c-0.151-0.576,0.128-1.177,0.666-1.433c2.409-1.145,5.006-2.296,7.518-3.407 c9.872-4.37,21.061-9.323,20.19-14.2c-0.292-1.044-1.023-1.893-2.211-2.486c-6.376-3.176-23.095,1.94-31.97,5.467 c-0.596,0.236-1.275-0.023-1.563-0.595c-0.288-0.573-0.091-1.271,0.454-1.61c7.596-4.7,19.55-13.757,19.293-18.045 c-0.027-0.458-0.216-1.139-1.531-1.75c-2.754-1.564-19.109,5.993-33.38,14.181c-0.457,0.262-1.032,0.207-1.429-0.139 c-0.398-0.346-0.533-0.907-0.337-1.396c1.637-4.079,5.378-15.621,3.074-19.994c-0.435-0.826-1.043-1.3-1.912-1.495 c-1.266-0.281-3.251,0.415-5.453,1.912c-7.028,4.775-15.608,16.846-17.667,29.809c-0.082,0.515-0.48,0.925-0.993,1.022 c-26.37,4.993-51.308,9.117-74.123,12.257c-46.498,6.4-82.134,8.517-105.918,6.292c-0.041-0.004-0.073-0.026-0.112-0.034 l-0.004,0.02c-16.925-1.597-22.372-4.989-23.838-6.243c-0.181-0.156-0.314-0.36-0.382-0.59c-1.621-5.484-1.163-10.24,1.441-14.969 c2.949-5.353,8.262-10.116,14.382-14.182c-5.206-8.987-10.06-18.144-14.506-27.563c-10.577,6.671-20.719,15.456-26.951,26.719 c-6.851,12.385-8.107,26.276-3.63,40.171c4.851,15.057,20.197,23.881,47.641,27.1l0,0.003c7.926,0.93,17.053,1.403,27.134,1.403 C189.982,231.153,216.484,229.064,249.401,224.768z M126.479,178.697c-2.237,4.061-2.656,7.992-1.342,12.699 c1.452,1.076,6.739,4.01,22.277,5.456c0.007,0.001,0.014-0.003,0.021-0.002c1.948,0.182,3.986,0.332,6.095,0.456 c4.124,0.236,8.805,0.376,14.149,0.375c2.011,0,4.093-0.027,6.209-0.066c-8.593-12.952-15.938-26.019-21.94-38.939 C141.678,163.586,131.036,170.426,126.479,178.697z M214.328,185.405c-0.275,0.526-0.887,0.787-1.456,0.613 c-0.933-0.281-2.18-0.709-3.631-1.206c-6.339-2.177-18.139-6.229-21.817-3.594c-0.443,0.318-1.032,0.91-1.026,2.37 c-0.117,4.405,8.839,9.213,17.457,12.47c14.639-1.186,30.963-3.014,48.93-5.486c7.376-1.015,14.996-2.144,22.795-3.362 c-3.983-1.696-7.988-3.413-12.04-5.174c-0.48-0.208-0.777-0.696-0.743-1.217c0.856-13.096-4.845-26.763-10.644-32.974 c-1.817-1.946-3.602-3.064-4.896-3.069c-0.004,0-0.008,0-0.012,0c-0.885,0-1.579,0.329-2.183,1.035 c-3.216,3.761-2.116,15.841-1.42,20.178c0.083,0.52-0.172,1.038-0.637,1.287c-0.464,0.25-1.035,0.178-1.425-0.179 c-12.109-11.138-26.388-22.155-29.321-21.233c-1.517,0.33-1.851,0.953-1.979,1.395c-1.198,4.128,8.46,15.599,14.829,21.861 c0.458,0.45,0.496,1.174,0.088,1.67c-0.408,0.497-1.127,0.598-1.657,0.235c-7.876-5.401-23.048-14.087-29.972-12.396 c-1.289,0.316-2.19,0.981-2.753,2.036c-1.88,4.463,7.941,11.768,16.605,18.213c2.203,1.639,4.48,3.332,6.575,4.981 C214.463,184.228,214.602,184.876,214.328,185.405z M219.026,286.919c-3.139-3.117-6.243-6.277-9.264-9.563 c-5.453-5.933-10.866-11.9-16.575-17.578L58.884,335.705c-0.563,0.318-1.272,0.152-1.634-0.381 c-22.143-32.567-43.39-36.083-51.496-36.083c-1.025,0-1.882,0.053-2.551,0.12l48.146,84.928L219.026,286.919z M379.418,261.459 c-14.966-4.432-31.696-10.056-50.534-16.988c-16.686-6.141-34.495-13.15-53.191-20.929c-8.927,1.358-17.595,2.588-25.971,3.681 c-17.04,2.224-32.359,3.854-46.191,4.915c25.481,29.054,56.322,54.656,89.354,72.507c9.112-2.859,18.18-6.246,27.14-10.084 l6.472-19.414c0.216-0.648,0.916-1.002,1.567-0.783c0.649,0.215,1,0.917,0.783,1.566l-60.054,180.154 c-0.204,0.612-0.845,0.964-1.468,0.812c-42.092-10.266-59.88,4.867-64.2,9.538l92.63,30.756l73.494-233.353 c0.206-0.652,0.904-1.012,1.553-0.809c0.653,0.206,1.015,0.901,0.809,1.554l-0.853,2.71 C373.675,265.39,376.562,263.443,379.418,261.459z M491.906,215.025c-9.727-33.513-51.5-55.625-56.232-58.037 c-0.61-0.31-0.852-1.056-0.541-1.666c0.311-0.61,1.057-0.853,1.666-0.541c2.54,1.294,15.542,8.161,28.754,19.397 c10.048-15.875,17.563-32.049,21.876-47.92c8.145-29.97,3.574-55.573-13.22-74.042c-19.276-21.199-42.76-31.947-69.8-31.947 c-45.567,0-85.965,30.877-86.368,31.189c-0.518,0.399-1.259,0.328-1.689-0.162c-0.429-0.488-43.491-48.819-96.908-48.819 c-19.882,0-38.909,6.681-56.551,19.856c-20.001,14.938-29.36,39.205-27.064,70.176c2.467,33.288,17.634,70.31,41.03,105.062 c6.652-0.175,13.798-0.536,21.444-1.085c-7.124-3.129-14.519-7.653-14.379-12.929c-0.01-2.366,1.115-3.677,2.06-4.354 c3.822-2.741,11.948-0.743,20.504,2.065c-0.182-0.135-0.363-0.271-0.544-0.405c-10.308-7.668-20.044-14.909-17.361-21.264 c0.95-1.79,2.414-2.892,4.399-3.378c6.182-1.513,16.539,3.439,23.916,7.703c-4.793-5.597-10.223-13.13-8.996-17.356 c0.324-1.116,1.236-2.562,3.738-3.1c4.896-1.499,21.301,12.508,29.121,19.535c-0.547-5.222-0.994-14.81,2.42-18.802 c1.069-1.251,2.538-1.933,4.087-1.903c2.033,0.007,4.349,1.34,6.698,3.855c6.023,6.452,11.951,20.431,11.353,33.954 c5.021,2.179,9.978,4.297,14.891,6.376c14.625-2.333,29.911-5.001,45.727-7.989c2.405-13.321,11.275-25.646,18.575-30.606 c2.847-1.934,5.401-2.726,7.385-2.28c1.566,0.348,2.798,1.303,3.565,2.758c2.449,4.648-0.106,13.901-1.794,18.873 c9.181-5.125,28.284-15.144,32.81-12.571c2.229,1.032,2.8,2.642,2.869,3.803c0.262,4.393-6.697,10.54-12.607,14.94 c8.136-2.529,19.322-5.072,25.026-2.226c1.829,0.912,3.014,2.31,3.519,4.156c1.237,6.901-9.856,11.812-21.601,17.012 c-0.207,0.092-0.415,0.184-0.623,0.276c8.966-0.847,17.328-1,20.451,2.517c0.772,0.868,1.579,2.397,1.04,4.739 c-1.139,5.731-11.155,8.518-19.395,9.848c1.359,0.503,2.575,1.187,3.449,2.116c1.087,1.154,1.565,2.611,1.383,4.214 c-0.934,4.711-5.861,6.766-11.344,7.553c14.312,4.526,26.145,7.732,35.912,9.974c10.721-9.685,20.648-19.886,29.563-30.409 c-8.826-7.801-18.849-13.937-23.639-16.402c-0.608-0.313-0.848-1.061-0.535-1.669c0.313-0.608,1.059-0.85,1.668-0.533 c8.922,4.592,35.524,21.633,40.566,39.119c1.495,5.187,0.89,9.927-1.903,14.918c-0.117,0.209-0.292,0.38-0.503,0.491 c-2.992,1.575-19.936,7.12-87.923-15.067c-4.746-0.018-8.823-0.583-9.84-0.735c-0.871-0.132-1.738-0.256-2.598-0.379 c-8.668-1.242-16.867-2.418-23.569-9.753c-19.331,3.686-37.878,6.912-55.447,9.647c17.296,7.146,33.804,13.616,49.339,19.333 c31.152,11.464,56.538,19.357,77.608,24.131c43.64,9.887,68.814,6.307,79.224-11.277 C494.006,242.442,495.851,228.618,491.906,215.025z M458.304,237.064c2.321-4.302,2.781-8.229,1.497-12.681 c-1.966-6.817-7.462-13.607-13.861-19.556c-7.789,9.208-16.407,18.269-25.786,27.053c-0.856,0.801-1.72,1.594-2.585,2.387 C446.836,240.673,456.217,237.971,458.304,237.064z M205.604,95.701l-6.669,7.805c-0.667,0.78-0.575,1.954,0.205,2.62 c0.351,0.299,0.78,0.445,1.207,0.445c0.524,0,1.046-0.221,1.413-0.651l6.669-7.805c0.667-0.78,0.575-1.954-0.205-2.62 C207.443,94.829,206.27,94.922,205.604,95.701z M217.037,95.346l-6.67,7.807c-0.667,0.78-0.574,1.954,0.206,2.62 c0.35,0.299,0.779,0.445,1.206,0.445c0.525,0,1.046-0.221,1.413-0.651l6.67-7.807c0.667-0.78,0.574-1.954-0.206-2.62 C218.877,94.474,217.703,94.567,217.037,95.346z M408.492,105.975l-6.67,7.807c-0.667,0.78-0.574,1.954,0.206,2.62 c0.35,0.299,0.779,0.445,1.206,0.445c0.525,0,1.046-0.222,1.413-0.651l6.67-7.807c0.667-0.78,0.574-1.954-0.206-2.62 C410.332,105.103,409.158,105.195,408.492,105.975z M419.924,105.622l-6.669,7.805c-0.667,0.78-0.575,1.954,0.205,2.62 c0.351,0.299,0.78,0.445,1.207,0.445c0.524,0,1.046-0.221,1.413-0.651l6.669-7.805c0.667-0.78,0.575-1.954-0.205-2.62 C421.763,104.751,420.591,104.843,419.924,105.622z" style="fill: inherit;"/></g></svg>