<svg xmlns="http://www.w3.org/2000/svg" xmlns:xlink="http://www.w3.org/1999/xlink" preserveAspectRatio="xMidYMid meet" version="1.0" viewBox="0.0 0.0 449.3 421.4" zoomAndPan="magnify" style="fill: rgb(0, 0, 0);" original_string_length="1479"><defs><clipPath id="__id0_sne7z580k"><path d="M 36 32 L 426 32 L 426 421.410156 L 36 421.410156 Z M 36 32"/></clipPath><clipPath id="__id1_sne7z580k"><path d="M 278 0 L 449.328125 0 L 449.328125 171 L 278 171 Z M 278 0"/></clipPath></defs><g><g clip-path="url(#__id0_sne7z580k)" id="__id2_sne7z580k"><path d="M 230.746094 32.421875 C 225.6875 217.75 221.582031 221.855469 36.253906 226.914062 C 221.582031 231.976562 225.6875 236.082031 230.746094 421.410156 C 235.808594 236.082031 239.914062 231.976562 425.242188 226.914062 C 239.914062 221.855469 235.808594 217.75 230.746094 32.421875" style="fill: rgb(255, 255, 255);"/></g><g id="__id3_sne7z580k"><path d="M 56.09375 259.753906 C 54.632812 313.203125 53.449219 314.386719 0 315.84375 C 53.449219 317.304688 54.632812 318.488281 56.09375 371.9375 C 57.550781 318.488281 58.734375 317.304688 112.183594 315.84375 C 58.734375 314.386719 57.550781 313.203125 56.09375 259.753906" style="fill: rgb(255, 255, 255);"/></g><g clip-path="url(#__id1_sne7z580k)" id="__id4_sne7z580k"><path d="M 364.117188 170.433594 C 366.335938 89.234375 368.132812 87.433594 449.332031 85.21875 C 368.132812 83 366.335938 81.203125 364.117188 0.00390625 C 361.898438 81.203125 360.101562 83 278.902344 85.21875 C 360.101562 87.433594 361.898438 89.234375 364.117188 170.433594" style="fill: rgb(255, 255, 255);"/></g></g></svg>